<svg id="_레이어_2" data-name="레이어_2" xmlns="http://www.w3.org/2000/svg" viewBox="0 0 392.2 340">
  <g id="_레이어_1-2" data-name="레이어_1">
    <g>
      <circle cx="120.7" cy="172.5" r="18" fill="currentColor" stroke-width="6" stroke="currentColor" />
      <path d="M196.7,179.5c-9.94,0-18,10.52-18,23.5s8.06,23.5,18,23.5,18-10.52,18-23.5-8.06-23.5-18-23.5ZM196.7,221.5c-7.05,0-13-8.47-13-18.5s5.95-18.5,13-18.5,13,8.47,13,18.5-5.95,18.5-13,18.5Z" fill="currentColor" stroke-width="6" stroke="currentColor" />
      <circle cx="271.7" cy="172.5" r="18" fill="currentColor" stroke-width="6" stroke="currentColor" />
        <path d="M392.2,177c0-16-12.12-29.16-27.67-30.82C352.95,63.57,282.01,0,196.2,0S39.47,63.56,27.88,146.16c-15.65,1.57-27.88,14.78-27.88,30.84,0,16.94,13.59,30.7,30.47,30.99,17.26,75.6,84.91,132.01,165.74,132.01s148.48-56.42,165.74-132.02c16.78-.39,30.26-14.11,30.26-30.98ZM79.53,53.33C110.7,22.16,152.13,5,196.2,5s85.51,17.16,116.67,48.33c25.7,25.7,41.87,58.4,46.75,93.79l-33.28,13.14c-5.59-25.04-27.92-43.76-54.64-43.76-29.92,0-54.36,23.47-55.92,53h-39.16c-1.56-29.53-26-53-55.92-53-26.59,0-48.84,18.54-54.56,43.39l-33.32-13.15c4.94-35.25,21.09-67.8,46.7-93.42ZM322.7,172.5c0,28.12-22.88,51-51,51s-51-22.88-51-51,22.88-51,51-51,51,22.88,51,51ZM171.7,172.5c0,28.12-22.88,51-51,51s-51-22.88-51-51,22.88-51,51-51,51,22.88,51,51ZM5,177c0-12.98,9.55-23.76,22-25.69-.66,6.23-1,12.49-1,18.69,0,11.06,1.04,22.11,3.1,32.93-13.45-.97-24.1-12.23-24.1-25.93ZM312.88,286.67c-31.16,31.16-72.6,48.33-116.67,48.33s-85.51-17.16-116.67-48.33c-31.16-31.16-48.33-72.6-48.33-116.67,0-6.1.34-12.15.99-18.13l33.04,13.04c-.34,2.48-.53,5.02-.53,7.59,0,30.93,25.07,56,56,56s54.89-24,55.95-54h39.1c1.06,30,25.69,54,55.95,54s56-25.07,56-56c0-2.45-.17-4.85-.48-7.22l33.03-13.04c.03.26.06.52.09.78.15,1.55.3,3.1.41,4.66.02.34.04.67.06,1.01.1,1.48.18,2.97.24,4.46.02.49.04.98.05,1.46.06,1.79.1,3.58.1,5.38,0,1.49-.02,2.98-.06,4.47-.02.64-.05,1.27-.07,1.91-.03.8-.06,1.6-.1,2.4-.05.9-.1,1.79-.16,2.68-.03.46-.06.92-.1,1.37-.09,1.17-.19,2.35-.3,3.52,0,.03,0,.05,0,.08-3.72,37.87-20.27,72.98-47.52,100.24ZM363.1,202.93c1.51-7.91,2.46-15.94,2.87-24.01,0-.07,0-.14.01-.21.06-1.22.1-2.44.14-3.67,0-.25.02-.49.03-.74.04-1.44.05-2.87.05-4.31,0-1.52-.02-3.03-.06-4.53-.01-.52-.04-1.04-.06-1.56-.03-.97-.07-1.94-.12-2.91-.05-.89-.11-1.77-.17-2.66-.04-.55-.07-1.09-.11-1.64-.14-1.8-.29-3.6-.48-5.4,12.44,1.93,22,12.72,22,25.69,0,13.7-10.65,24.96-24.1,25.93Z" fill="currentColor" stroke-width="6" stroke="currentColor" />
    </g>
  </g>
</svg>